<svg width="189" height="190" viewBox="0 0 189 190" fill="none" xmlns="http://www.w3.org/2000/svg">
<path fill-rule="evenodd" clip-rule="evenodd" d="M56.5785 148.777L121.112 148.777H123.107V148.741C151.945 147.691 175 123.982 175 94.8884C175 65.1267 150.873 41 121.112 41C101.299 41 83.984 51.6919 74.6212 67.6205C69.1429 65.0538 63.0282 63.6198 56.5785 63.6198C33.063 63.6198 14 82.6829 14 106.198C14 128.368 30.9431 146.58 52.5868 148.592V148.777L56.5785 148.777ZM68.5537 107.529C68.5537 100.915 63.1922 95.5537 56.5785 95.5537H55.9132C49.6669 95.5537 44.6033 100.617 44.6033 106.864C44.6033 113.11 49.6669 118.174 55.9132 118.174H68.5537V107.529ZM120.446 72.9339C107.954 72.9339 97.8264 83.0611 97.8264 95.5537V118.174H120.446C132.939 118.174 143.066 108.046 143.066 95.5537C143.066 83.0611 132.939 72.9339 120.446 72.9339Z" fill="#060611"/>
</svg>
