<svg width="42" height="22" viewBox="0 0 42 22" fill="none" xmlns="http://www.w3.org/2000/svg">
<path d="M4.07839 14.9648C3.47878 14.9648 2.80163 14.9132 2.04695 14.8098C1.63342 14.7581 1.34912 14.6495 1.19405 14.4841C1.03898 14.3187 0.971783 14.0499 0.992459 13.6777C1.06483 12.6543 1.2354 11.393 1.5042 9.894C1.77299 8.38463 2.09864 6.93213 2.48115 5.53648C2.55352 5.27803 2.69825 5.09711 2.91535 4.99373C3.13245 4.89035 3.41675 4.83866 3.76824 4.83866C4.39887 4.83866 4.71418 5.01441 4.71418 5.3659C4.71418 5.51064 4.68317 5.67605 4.62114 5.86213C4.35235 6.68918 4.08356 7.80053 3.81477 9.19617C3.54597 10.5815 3.35472 11.9048 3.241 13.166C3.55114 13.197 3.90264 13.2125 4.29549 13.2125C6.10466 13.2125 7.45378 12.6646 8.34286 11.5688C9.24228 10.4729 9.69199 9.01009 9.69199 7.18024C9.69199 5.95 9.34049 4.9989 8.6375 4.32692C7.93451 3.65494 6.94205 3.31895 5.66012 3.31895C4.83307 3.31895 4.01119 3.44818 3.19448 3.70663C2.38811 3.96509 1.65927 4.30624 1.00797 4.73011C0.873571 4.82315 0.728837 4.86967 0.573766 4.86967C0.398018 4.86967 0.258453 4.79731 0.155072 4.65257C0.0516906 4.4975 0 4.31141 0 4.09431C0 3.8462 0.0413525 3.64461 0.124057 3.48953C0.206762 3.32412 0.346327 3.17422 0.542751 3.03982C1.25608 2.55393 2.09347 2.18693 3.05491 1.93882C4.01636 1.68036 4.94162 1.55114 5.8307 1.55114C7.09195 1.55114 8.18262 1.77341 9.10271 2.21794C10.0228 2.65215 10.731 3.29311 11.2272 4.14083C11.7234 4.98856 11.9715 6.01203 11.9715 7.21126C11.9715 8.77231 11.6614 10.1369 11.0411 11.3052C10.4208 12.463 9.51624 13.3624 8.32735 14.0034C7.13847 14.6444 5.72215 14.9648 4.07839 14.9648Z" fill="#060611"/>
<path d="M13.9591 14.9648C13.5663 14.9648 13.2871 14.7581 13.1217 14.3446C12.9667 13.931 12.8891 13.2694 12.8891 12.3596C12.8891 11.0157 13.0804 9.73892 13.4629 8.52936C13.5559 8.22956 13.7058 8.01246 13.9126 7.87806C14.1297 7.73333 14.4295 7.66096 14.812 7.66096C15.0188 7.66096 15.1635 7.68681 15.2462 7.7385C15.3289 7.79019 15.3703 7.8884 15.3703 8.03313C15.3703 8.19854 15.2927 8.57072 15.1377 9.14965C15.0343 9.56318 14.9516 9.92501 14.8896 10.2352C14.8275 10.5453 14.7758 10.9278 14.7345 11.3827C15.0756 10.4936 15.4582 9.76994 15.882 9.21168C16.3059 8.65342 16.7194 8.2554 17.1226 8.01763C17.5361 7.77985 17.9135 7.66096 18.2546 7.66096C18.9266 7.66096 19.2626 7.99695 19.2626 8.66893C19.2626 8.80333 19.2161 9.12898 19.123 9.64588C19.0403 10.0594 18.999 10.3179 18.999 10.4212C18.999 10.7831 19.1282 10.964 19.3866 10.964C19.6761 10.964 20.0483 10.7366 20.5032 10.2817C20.6375 10.1473 20.7771 10.0801 20.9218 10.0801C21.0562 10.0801 21.1596 10.1421 21.232 10.2662C21.3147 10.3799 21.356 10.535 21.356 10.7314C21.356 11.1139 21.2527 11.4137 21.0459 11.6308C20.7564 11.9306 20.4153 12.1891 20.0224 12.4062C19.6399 12.6129 19.2316 12.7163 18.7974 12.7163C18.2494 12.7163 17.8307 12.5767 17.5413 12.2976C17.2622 12.0185 17.1226 11.6411 17.1226 11.1656C17.1226 11.0105 17.1381 10.8554 17.1691 10.7004C17.1898 10.4936 17.2001 10.354 17.2001 10.2817C17.2001 10.1163 17.1433 10.0336 17.0295 10.0336C16.8745 10.0336 16.6677 10.2093 16.4093 10.5608C16.1611 10.902 15.913 11.3568 15.6649 11.9254C15.4168 12.494 15.2152 13.0936 15.0601 13.7243C14.9464 14.2102 14.812 14.541 14.6569 14.7167C14.5122 14.8821 14.2796 14.9648 13.9591 14.9648Z" fill="#060611"/>
<path d="M21.9465 6.63749C21.5123 6.63749 21.1867 6.53928 20.9696 6.34285C20.7525 6.13609 20.6439 5.85179 20.6439 5.48996C20.6439 5.12812 20.7835 4.82832 21.0626 4.59054C21.3521 4.34243 21.7088 4.21837 22.1326 4.21837C22.5151 4.21837 22.8253 4.31141 23.063 4.4975C23.3008 4.68359 23.4197 4.94721 23.4197 5.28837C23.4197 5.70189 23.2853 6.03271 23.0165 6.28082C22.7477 6.5186 22.3911 6.63749 21.9465 6.63749ZM21.8225 14.9648C21.1505 14.9648 20.6594 14.7271 20.3493 14.2515C20.0495 13.776 19.8996 13.1453 19.8996 12.3596C19.8996 11.8944 19.9564 11.3 20.0702 10.5763C20.1942 9.84231 20.3493 9.15999 20.5354 8.52936C20.6284 8.19854 20.7525 7.97111 20.9076 7.84705C21.0626 7.72299 21.3107 7.66096 21.6519 7.66096C22.1791 7.66096 22.4428 7.83671 22.4428 8.18821C22.4428 8.44666 22.3445 9.04627 22.1481 9.98704C21.9 11.1242 21.776 11.8944 21.776 12.2976C21.776 12.6078 21.8173 12.8455 21.9 13.0109C21.9827 13.1763 22.1223 13.2591 22.3187 13.2591C22.5048 13.2591 22.7374 13.1298 23.0165 12.8714C23.2957 12.6129 23.6678 12.2046 24.133 11.6463C24.2571 11.5016 24.3967 11.4292 24.5517 11.4292C24.6861 11.4292 24.7895 11.4912 24.8619 11.6153C24.9446 11.7394 24.9859 11.9099 24.9859 12.127C24.9859 12.5406 24.8877 12.861 24.6913 13.0885C23.6678 14.3394 22.7116 14.9648 21.8225 14.9648Z" fill="#060611"/>
<path d="M31.5588 10.1731C31.5898 10.1628 31.6415 10.1576 31.7139 10.1576C31.8689 10.1576 31.9878 10.2093 32.0705 10.3127C32.1532 10.4161 32.1946 10.5556 32.1946 10.7314C32.1946 11.0519 32.1326 11.3051 32.0085 11.4912C31.8844 11.667 31.6984 11.7962 31.4502 11.8789C30.9747 12.034 30.4681 12.1115 29.9305 12.1115C29.4757 12.1115 29.0466 12.0495 28.6434 11.9254C28.3436 12.4113 28.0128 12.9127 27.651 13.4296C27.2375 14.0189 26.8808 14.4221 26.581 14.6392C26.2812 14.8563 25.94 14.9648 25.5575 14.9648C25.1337 14.9648 24.7977 14.7994 24.5496 14.4686C24.3118 14.1378 24.1619 13.6157 24.0998 12.9024C23.9758 11.4551 23.9138 10.1886 23.9138 9.10313V8.56038C23.9241 8.21922 24.0171 7.98144 24.1929 7.84705C24.3686 7.71265 24.6323 7.64546 24.9838 7.64546C25.2525 7.64546 25.449 7.70749 25.573 7.83154C25.7074 7.94526 25.7746 8.14169 25.7746 8.42081C25.7746 9.6097 25.847 11.1552 25.9917 13.0575C26.612 12.1374 27.0772 11.4034 27.3874 10.8554C27.2323 10.5556 27.1548 10.199 27.1548 9.78545C27.1548 9.43395 27.2323 9.09279 27.3874 8.76197C27.5424 8.43115 27.7544 8.16236 28.0232 7.9556C28.292 7.74884 28.5969 7.64546 28.9381 7.64546C29.2379 7.64546 29.4808 7.75401 29.6669 7.97111C29.853 8.17787 29.9461 8.48284 29.9461 8.88603C29.9461 9.35125 29.822 9.88366 29.5739 10.4833C29.9667 10.4626 30.4888 10.3851 31.1401 10.2507L31.5588 10.1731Z" fill="#060611"/>
<path d="M36.7261 11.4292C36.8605 11.4292 36.9639 11.4912 37.0362 11.6153C37.1189 11.7394 37.1603 11.9099 37.1603 12.127C37.1603 12.5406 37.0621 12.861 36.8656 13.0885C36.4211 13.6364 35.9352 14.0861 35.408 14.4376C34.8911 14.7891 34.3018 14.9648 33.6402 14.9648C32.7304 14.9648 32.0533 14.5513 31.6087 13.7243C31.1745 12.8972 30.9574 11.8272 30.9574 10.5143C30.9574 9.25303 31.1177 7.81604 31.4381 6.20329C31.769 4.59054 32.2497 3.20524 32.8803 2.04737C33.5213 0.889497 34.2811 0.310562 35.1599 0.310562C35.6561 0.310562 36.0438 0.54317 36.3229 1.00839C36.6124 1.46326 36.7571 2.11973 36.7571 2.9778C36.7571 4.20803 36.4159 5.63469 35.7336 7.25778C35.0513 8.88086 34.126 10.4884 32.9578 12.0805C33.0302 12.5044 33.1491 12.8093 33.3145 12.9954C33.4799 13.1712 33.697 13.2591 33.9658 13.2591C34.3897 13.2591 34.7618 13.1402 35.0823 12.9024C35.4028 12.6543 35.8112 12.2356 36.3074 11.6463C36.4314 11.5016 36.571 11.4292 36.7261 11.4292ZM34.8187 1.84577C34.5809 1.84577 34.3121 2.2748 34.0123 3.13287C33.7125 3.99093 33.4489 5.05576 33.2215 6.32735C32.994 7.59893 32.87 8.81883 32.8493 9.98704C33.5833 8.77748 34.1674 7.56792 34.6016 6.35836C35.0358 5.13846 35.2529 4.02712 35.2529 3.02432C35.2529 2.23862 35.1082 1.84577 34.8187 1.84577Z" fill="#060611"/>
<path d="M41.3344 7.66096C41.5722 7.66096 41.7376 7.69198 41.8306 7.75401C41.9236 7.81604 41.9702 7.91942 41.9702 8.06415C41.9702 8.31226 41.8358 9.19617 41.567 10.7159C41.3292 12.1736 41.1896 13.0368 41.1483 13.3056C40.7658 15.9625 40.2385 18.0663 39.5666 19.617C38.8946 21.1677 38.0003 21.9431 36.8838 21.9431C36.3566 21.9431 35.9275 21.7777 35.5967 21.4468C35.2659 21.1264 35.1005 20.7025 35.1005 20.1753C35.1005 19.6894 35.209 19.1931 35.4261 18.6866C35.6536 18.18 36.0671 17.5959 36.6667 16.9343C37.2767 16.283 38.1347 15.5334 39.2409 14.6857L39.2874 14.329C39.3598 13.9465 39.4425 13.3986 39.5355 12.6853C39.3288 13.4296 39.0393 13.9982 38.6671 14.3911C38.295 14.7736 37.9021 14.9648 37.4886 14.9648C37.0234 14.9648 36.6409 14.7529 36.3411 14.329C36.0516 13.8948 35.9069 13.3573 35.9069 12.7163C35.9069 11.9409 35.9586 11.2328 36.0619 10.5918C36.1653 9.94052 36.3359 9.25303 36.5737 8.52936C36.6771 8.21922 36.8218 7.99695 37.0079 7.86256C37.194 7.72816 37.4886 7.66096 37.8918 7.66096C38.1192 7.66096 38.2743 7.69715 38.357 7.76951C38.45 7.84188 38.4966 7.95043 38.4966 8.09516C38.4966 8.17787 38.4397 8.457 38.326 8.93255C38.2226 9.31506 38.1399 9.66139 38.0779 9.97153C37.9952 10.3954 37.9228 10.8038 37.8608 11.1966C37.7987 11.5791 37.7677 11.8944 37.7677 12.1425C37.7677 12.5354 37.8763 12.7318 38.0934 12.7318C38.2484 12.7318 38.4397 12.5767 38.6671 12.2666C38.9049 11.9565 39.153 11.4861 39.4115 10.8554C39.6803 10.2248 39.9387 9.44946 40.1868 8.52936C40.2696 8.21922 40.3936 7.99695 40.559 7.86256C40.7348 7.72816 40.9932 7.66096 41.3344 7.66096ZM37.0544 20.4389C37.3128 20.4389 37.6023 20.1391 37.9228 19.5395C38.2433 18.9398 38.5638 17.9422 38.8842 16.5466C38.0882 17.2186 37.5093 17.8285 37.1474 18.3764C36.7959 18.9347 36.6202 19.4206 36.6202 19.8341C36.6202 20.0098 36.6512 20.1546 36.7132 20.2683C36.7856 20.382 36.8993 20.4389 37.0544 20.4389Z" fill="#060611"/>
</svg>
