<svg width="69" height="12" viewBox="0 0 69 12" fill="none" xmlns="http://www.w3.org/2000/svg">
<path d="M0.958807 9V0.272727H4.0696C4.74858 0.272727 5.31108 0.396307 5.7571 0.643466C6.20313 0.890625 6.53693 1.22869 6.75852 1.65767C6.98011 2.08381 7.09091 2.56392 7.09091 3.09801C7.09091 3.63494 6.97869 4.1179 6.75426 4.54688C6.53267 4.97301 6.19744 5.31108 5.74858 5.56108C5.30256 5.80824 4.74148 5.93182 4.06534 5.93182H1.92614V4.81534H3.94602C4.375 4.81534 4.72301 4.74148 4.99006 4.59375C5.2571 4.44318 5.45312 4.23864 5.57812 3.98011C5.70312 3.72159 5.76562 3.42756 5.76562 3.09801C5.76562 2.76847 5.70312 2.47585 5.57812 2.22017C5.45312 1.96449 5.25568 1.7642 4.9858 1.61932C4.71875 1.47443 4.36648 1.40199 3.92898 1.40199H2.27557V9H0.958807ZM11.3874 9.1321C10.7737 9.1321 10.2382 8.99148 9.78085 8.71023C9.32347 8.42898 8.96835 8.03551 8.71551 7.52983C8.46267 7.02415 8.33625 6.43324 8.33625 5.7571C8.33625 5.07812 8.46267 4.48437 8.71551 3.97585C8.96835 3.46733 9.32347 3.07244 9.78085 2.79119C10.2382 2.50994 10.7737 2.36932 11.3874 2.36932C12.001 2.36932 12.5365 2.50994 12.9939 2.79119C13.4513 3.07244 13.8064 3.46733 14.0593 3.97585C14.3121 4.48437 14.4385 5.07812 14.4385 5.7571C14.4385 6.43324 14.3121 7.02415 14.0593 7.52983C13.8064 8.03551 13.4513 8.42898 12.9939 8.71023C12.5365 8.99148 12.001 9.1321 11.3874 9.1321ZM11.3916 8.0625C11.7894 8.0625 12.1189 7.95739 12.3803 7.74716C12.6416 7.53693 12.8348 7.2571 12.9598 6.90767C13.0877 6.55824 13.1516 6.1733 13.1516 5.75284C13.1516 5.33523 13.0877 4.9517 12.9598 4.60227C12.8348 4.25 12.6416 3.96733 12.3803 3.75426C12.1189 3.54119 11.7894 3.43466 11.3916 3.43466C10.9911 3.43466 10.6587 3.54119 10.3945 3.75426C10.1331 3.96733 9.93852 4.25 9.81068 4.60227C9.68568 4.9517 9.62318 5.33523 9.62318 5.75284C9.62318 6.1733 9.68568 6.55824 9.81068 6.90767C9.93852 7.2571 10.1331 7.53693 10.3945 7.74716C10.6587 7.95739 10.9911 8.0625 11.3916 8.0625ZM17.2606 9L15.3344 2.45455H16.6512L17.9339 7.26136H17.9978L19.2847 2.45455H20.6015L21.8799 7.24006H21.9438L23.218 2.45455H24.5347L22.6128 9H21.3131L19.9836 4.27415H19.8856L18.556 9H17.2606ZM28.5457 9.1321C27.9008 9.1321 27.3454 8.99432 26.8795 8.71875C26.4164 8.44034 26.0585 8.04972 25.8056 7.54688C25.5556 7.04119 25.4306 6.44886 25.4306 5.76989C25.4306 5.09943 25.5556 4.50852 25.8056 3.99716C26.0585 3.4858 26.4107 3.08665 26.8624 2.79972C27.317 2.51278 27.8482 2.36932 28.4562 2.36932C28.8255 2.36932 29.1835 2.4304 29.5301 2.55256C29.8766 2.67472 30.1877 2.86648 30.4633 3.12784C30.7389 3.3892 30.9562 3.72869 31.1153 4.14631C31.2744 4.56108 31.3539 5.06534 31.3539 5.65909V6.1108H26.1508V5.15625H30.1053C30.1053 4.82102 30.0372 4.52415 29.9008 4.26562C29.7644 4.00426 29.5727 3.7983 29.3255 3.64773C29.0812 3.49716 28.7943 3.42188 28.4647 3.42188C28.1068 3.42188 27.7943 3.50994 27.5272 3.68608C27.263 3.85937 27.0585 4.08665 26.9136 4.3679C26.7715 4.64631 26.7005 4.94886 26.7005 5.27557V6.02131C26.7005 6.45881 26.7772 6.83097 26.9306 7.13778C27.0869 7.4446 27.3042 7.67898 27.5826 7.84091C27.861 8 28.1863 8.07955 28.5585 8.07955C28.7999 8.07955 29.0201 8.04545 29.219 7.97727C29.4178 7.90625 29.5897 7.80114 29.7346 7.66193C29.8795 7.52273 29.9903 7.35085 30.067 7.14631L31.273 7.36364C31.1764 7.71875 31.0031 8.02983 30.7531 8.29688C30.5059 8.56108 30.1948 8.76705 29.8198 8.91477C29.4477 9.05966 29.023 9.1321 28.5457 9.1321ZM32.9476 9V2.45455H34.1792V3.49432H34.2473C34.3667 3.14205 34.5769 2.86506 34.878 2.66335C35.182 2.45881 35.5258 2.35653 35.9093 2.35653C35.9888 2.35653 36.0826 2.35937 36.1905 2.36506C36.3013 2.37074 36.388 2.37784 36.4505 2.38636V3.60511C36.3993 3.59091 36.3084 3.57528 36.1777 3.55824C36.0471 3.53835 35.9164 3.52841 35.7857 3.52841C35.4846 3.52841 35.2161 3.59233 34.9803 3.72017C34.7473 3.84517 34.5627 4.01989 34.4263 4.24432C34.29 4.46591 34.2218 4.71875 34.2218 5.00284V9H32.9476ZM40.3197 9.1321C39.6749 9.1321 39.1195 8.99432 38.6536 8.71875C38.1905 8.44034 37.8325 8.04972 37.5797 7.54688C37.3297 7.04119 37.2047 6.44886 37.2047 5.76989C37.2047 5.09943 37.3297 4.50852 37.5797 3.99716C37.8325 3.4858 38.1848 3.08665 38.6365 2.79972C39.0911 2.51278 39.6223 2.36932 40.2303 2.36932C40.5996 2.36932 40.9575 2.4304 41.3041 2.55256C41.6507 2.67472 41.9618 2.86648 42.2374 3.12784C42.5129 3.3892 42.7303 3.72869 42.8893 4.14631C43.0484 4.56108 43.128 5.06534 43.128 5.65909V6.1108H37.9249V5.15625H41.8794C41.8794 4.82102 41.8112 4.52415 41.6749 4.26562C41.5385 4.00426 41.3467 3.7983 41.0996 3.64773C40.8553 3.49716 40.5683 3.42188 40.2388 3.42188C39.8808 3.42188 39.5683 3.50994 39.3013 3.68608C39.0371 3.85937 38.8325 4.08665 38.6876 4.3679C38.5456 4.64631 38.4746 4.94886 38.4746 5.27557V6.02131C38.4746 6.45881 38.5513 6.83097 38.7047 7.13778C38.8609 7.4446 39.0783 7.67898 39.3567 7.84091C39.6351 8 39.9604 8.07955 40.3325 8.07955C40.574 8.07955 40.7942 8.04545 40.993 7.97727C41.1919 7.90625 41.3638 7.80114 41.5087 7.66193C41.6536 7.52273 41.7643 7.35085 41.8411 7.14631L43.047 7.36364C42.9504 7.71875 42.7771 8.02983 42.5271 8.29688C42.28 8.56108 41.9689 8.76705 41.5939 8.91477C41.2217 9.05966 40.797 9.1321 40.3197 9.1321ZM47.172 9.12784C46.6436 9.12784 46.172 8.9929 45.7572 8.72301C45.3453 8.45028 45.0214 8.0625 44.7856 7.55966C44.5527 7.05398 44.4362 6.44744 44.4362 5.74006C44.4362 5.03267 44.5541 4.42756 44.7899 3.92472C45.0285 3.42187 45.3552 3.03693 45.77 2.76989C46.1848 2.50284 46.6549 2.36932 47.1805 2.36932C47.5867 2.36932 47.9135 2.4375 48.1606 2.57386C48.4106 2.70739 48.6038 2.86364 48.7402 3.04261C48.8794 3.22159 48.9873 3.37926 49.064 3.51562H49.1407V0.272727H50.4149V9H49.1706V7.98153H49.064C48.9873 8.12074 48.8765 8.27983 48.7316 8.45881C48.5896 8.63778 48.3936 8.79403 48.1436 8.92756C47.8936 9.06108 47.5697 9.12784 47.172 9.12784ZM47.4532 8.04119C47.8197 8.04119 48.1294 7.9446 48.3822 7.75142C48.6379 7.5554 48.8311 7.28409 48.9617 6.9375C49.0953 6.59091 49.162 6.1875 49.162 5.72727C49.162 5.27273 49.0967 4.875 48.966 4.53409C48.8353 4.19318 48.6436 3.92756 48.3907 3.73722C48.1379 3.54687 47.8254 3.4517 47.4532 3.4517C47.0697 3.4517 46.7501 3.55114 46.4944 3.75C46.2387 3.94886 46.0456 4.22017 45.9149 4.56392C45.787 4.90767 45.7231 5.29545 45.7231 5.72727C45.7231 6.16477 45.7885 6.55824 45.9191 6.90767C46.0498 7.2571 46.243 7.53409 46.4987 7.73864C46.7572 7.94034 47.0754 8.04119 47.4532 8.04119ZM55.8715 9V0.272727H57.1456V3.51562H57.2223C57.2962 3.37926 57.4027 3.22159 57.5419 3.04261C57.6811 2.86364 57.8743 2.70739 58.1215 2.57386C58.3686 2.4375 58.6953 2.36932 59.1016 2.36932C59.63 2.36932 60.1016 2.50284 60.5163 2.76989C60.9311 3.03693 61.2564 3.42187 61.4922 3.92472C61.7308 4.42756 61.8502 5.03267 61.8502 5.74006C61.8502 6.44744 61.7323 7.05398 61.4965 7.55966C61.2607 8.0625 60.9368 8.45028 60.5249 8.72301C60.1129 8.9929 59.6428 9.12784 59.1144 9.12784C58.7166 9.12784 58.3913 9.06108 58.1385 8.92756C57.8885 8.79403 57.6925 8.63778 57.5504 8.45881C57.4084 8.27983 57.299 8.12074 57.2223 7.98153H57.1158V9H55.8715ZM57.12 5.72727C57.12 6.1875 57.1868 6.59091 57.3203 6.9375C57.4538 7.28409 57.647 7.5554 57.8999 7.75142C58.1527 7.9446 58.4624 8.04119 58.8288 8.04119C59.2095 8.04119 59.5277 7.94034 59.7834 7.73864C60.0391 7.53409 60.2323 7.2571 60.3629 6.90767C60.4965 6.55824 60.5632 6.16477 60.5632 5.72727C60.5632 5.29545 60.4979 4.90767 60.3672 4.56392C60.2394 4.22017 60.0462 3.94886 59.7877 3.75C59.532 3.55114 59.2124 3.4517 58.8288 3.4517C58.4595 3.4517 58.147 3.54687 57.8913 3.73722C57.6385 3.92756 57.4467 4.19318 57.3161 4.53409C57.1854 4.875 57.12 5.27273 57.12 5.72727ZM64.0436 11.4545C63.8533 11.4545 63.68 11.4389 63.5238 11.4077C63.3675 11.3793 63.251 11.348 63.1743 11.3139L63.4811 10.2699C63.7141 10.3324 63.9215 10.3594 64.1033 10.3509C64.2851 10.3423 64.4456 10.2741 64.5848 10.1463C64.7269 10.0185 64.8519 9.80966 64.9598 9.51989L65.1175 9.08523L62.7226 2.45455H64.0863L65.7439 7.53409H65.8121L67.4698 2.45455H68.8377L66.1402 9.87358C66.0152 10.2145 65.8561 10.5028 65.663 10.7386C65.4698 10.9773 65.2397 11.1563 64.9726 11.2756C64.7056 11.3949 64.3959 11.4545 64.0436 11.4545Z" fill="#8792A2"/>
</svg>
